P2
# A comment 
4 4
255
10 
13
12
7
13
16
8
6
14
13
12
5
13
12
11
9
